<svg width="51" height="41" viewBox="0 0 51 41" fill="none" xmlns="http://www.w3.org/2000/svg">
<path d="M20.9355 20.8341L22.0359 19.4591L18.4936 16.6254L22.0359 13.7918L20.9355 12.4168L16.5341 15.9379C16.431 16.0204 16.3477 16.125 16.2905 16.244C16.2333 16.363 16.2036 16.4934 16.2036 16.6254C16.2036 16.7575 16.2333 16.8878 16.2905 17.0068C16.3477 17.1258 16.431 17.2305 16.5341 17.3129L20.9355 20.8341ZM29.0782 12.4168L27.9778 13.7918L31.5201 16.6254L27.9778 19.4591L29.0782 20.8341L33.4796 17.3129C33.5827 17.2305 33.6659 17.1258 33.7232 17.0068C33.7804 16.8878 33.8101 16.7575 33.8101 16.6254C33.8101 16.4934 33.7804 16.363 33.7232 16.244C33.6659 16.125 33.5827 16.0204 33.4796 15.9379L29.0782 12.4168ZM27.6266 8.89303L24.1054 24.7381L22.3862 24.3561L25.9074 8.51099L27.6266 8.89303Z" fill="#1054A1"/>
<path fill-rule="evenodd" clip-rule="evenodd" d="M0 3.42126C0 1.76441 1.34315 0.421265 3 0.421265H47.0141C48.671 0.421265 50.0141 1.76441 50.0141 3.42126V29.8297C50.0141 31.4866 48.671 32.8297 47.0141 32.8297H29.4081V36.872H19.725V32.8297H3C1.34315 32.8297 0 31.4866 0 29.8297V3.42126ZM44.0141 29.8297L29.4081 29.8297H19.725L6 29.8297H3V26.8297V6.42126V3.42126H6H44.0141H47.0141V6.42126V26.8297V29.8297H44.0141ZM2.11957 36.8722C1.14724 36.8722 0.359007 37.6604 0.359007 38.6328C0.359007 39.6051 1.14724 40.3933 2.11957 40.3933H47.8942C48.8666 40.3933 49.6548 39.6051 49.6548 38.6328C49.6548 37.6604 48.8666 36.8722 47.8942 36.8722H2.11957Z" fill="#1054A1"/>
</svg>
