<svg width="54" height="54" viewBox="0 0 54 54" fill="none" xmlns="http://www.w3.org/2000/svg">
<path d="M33.32 12.3412L29.72 15.9412L33.32 19.5412" stroke="#1054A1" stroke-width="2" stroke-linecap="round" stroke-linejoin="round"/>
<path d="M29.72 15.9412H35.48C39.4565 15.9412 42.68 19.1646 42.68 23.1412V23.8612" stroke="#1054A1" stroke-width="2" stroke-linecap="round" stroke-linejoin="round"/>
<path d="M20.8402 43.4213L24.4402 39.8213L20.8402 36.2213" stroke="#1054A1" stroke-width="2" stroke-linecap="round" stroke-linejoin="round"/>
<path d="M24.4402 39.8213L18.6802 39.8213C14.7036 39.8213 11.4802 36.5978 11.4802 32.6213L11.4802 31.9013" stroke="#1054A1" stroke-width="2" stroke-linecap="round" stroke-linejoin="round"/>
<path d="M41.04 29.5813C35.0849 29.5813 30.24 34.4262 30.24 40.3813C30.24 46.3364 35.0849 51.1813 41.04 51.1813C46.9951 51.1813 51.84 46.3364 51.84 40.3813C51.84 34.4262 46.9951 29.5813 41.04 29.5813ZM42.12 45.6895V46.8613H39.96V45.6949C37.4339 45.2985 36.72 43.5327 36.72 42.5413H38.88C38.8919 42.6957 39.0517 43.6213 41.04 43.6213C42.5304 43.6213 43.2 42.9895 43.2 42.5413C43.2 42.1914 43.2 41.4613 41.04 41.4613C37.2816 41.4613 36.72 39.4309 36.72 38.2213C36.72 36.8303 37.8313 35.4306 39.96 35.0731V33.9143H42.12V35.112C43.9927 35.5548 44.712 37.1132 44.712 38.2213H43.632L42.552 38.2407C42.5369 37.8303 42.3198 37.1413 41.04 37.1413C39.6371 37.1413 38.88 37.6986 38.88 38.2213C38.88 38.6252 38.88 39.3013 41.04 39.3013C44.7984 39.3013 45.36 41.3317 45.36 42.5413C45.36 43.9323 44.2487 45.332 42.12 45.6895Z" fill="#1054A1"/>
<path d="M12.9491 2.5813C6.98751 2.5813 2.15991 7.4197 2.15991 13.3813C2.15991 19.3429 6.98751 24.1813 12.9491 24.1813C18.9215 24.1813 23.7599 19.3429 23.7599 13.3813C23.7599 7.4197 18.9215 2.5813 12.9491 2.5813ZM17.2799 17.7013C17.18 17.8014 17.0613 17.8809 16.9307 17.935C16.8 17.9892 16.66 18.0171 16.5185 18.0171C16.3771 18.0171 16.237 17.9892 16.1064 17.935C15.9757 17.8809 15.857 17.8014 15.7571 17.7013L12.2039 14.1481C12.1019 14.0481 12.0207 13.9288 11.9651 13.7972C11.9094 13.6655 11.8805 13.5242 11.8799 13.3813V9.0613C11.8799 8.4673 12.3659 7.9813 12.9599 7.9813C13.5539 7.9813 14.0399 8.4673 14.0399 9.0613V12.9385L17.2799 16.1785C17.7011 16.5997 17.7011 17.2801 17.2799 17.7013Z" fill="#1054A1"/>
</svg>
