<svg width="43" height="46" viewBox="0 0 43 46" fill="none" xmlns="http://www.w3.org/2000/svg">
<path d="M20.3267 45.2742C21.0004 45.634 21.8461 45.6317 22.5198 45.2719C40.8806 35.4086 42.1846 16.1379 42.1686 10.6586C42.1668 10.2182 42.0367 9.78784 41.7941 9.42029C41.5515 9.05274 41.207 8.76391 40.8027 8.58918L22.3548 0.417099C22.0612 0.287687 21.7438 0.221043 21.423 0.221437C21.1022 0.221832 20.785 0.289257 20.4917 0.41939L2.1721 8.59147C1.7738 8.7663 1.43416 9.05193 1.19362 9.41436C0.953092 9.77678 0.821816 10.2007 0.815436 10.6356C0.737519 16.0875 1.83523 35.3994 20.3267 45.2742ZM13.8779 19.0094L19.1327 24.2642L28.9709 14.4261L32.2113 17.6665L19.1327 30.745L10.6375 22.2498L13.8779 19.0094Z" fill="#0E549F"/>
</svg>
